/* XPM */
static char *fireworks[]={
"40 40 10 1",
". c #000000",
"e c #201e1b",
"h c #685848",
"a c #702d2c",
"b c #9a3331",
"# c #dc0300",
"c c #ee4a47",
"d c #f19e9d",
"f c #fadabc",
"g c #fd9c40",
"........................................",
"....#...................................",
"...a#a......#...........................",
"..abcba.....c.......#...................",
".##cdc##..#cdc#....#c#..................",
"..abcba.....c.......#...................",
"...a#a......#...........................",
"....#...................................",
"........................................",
"........................................",
"........................................",
"........................................",
"........................................",
"........................................",
"........................................",
"........................................",
"...ee......ee......ee......ee...........",
"...ff......ff......ff......ff...........",
"...gg......gg......gg......gg...........",
"...gg......gg......gg......gg...........",
"...hh......ghe.....hhe.....hg...........",
"...hh......hhe....ehhe....ehh...........",
"...ee......eee....eee.....eeee..........",
"............e......e.......e............",
"........................................",
"........................................",
"........................................",
"........................................",
"........................................",
"........................................",
"........................................",
"........................................",
"........................................",
"........................................",
"........................................",
"........................................",
"........................................",
"........................................",
"........................................",
"........................................"};
